<svg xmlns="http://www.w3.org/2000/svg" viewBox="0 0 360 190" role="img" aria-label="">
  <defs>
    <linearGradient id="communityWall" x1="0" y1="0" x2="1" y2="1">
      <stop offset="0" stop-color="#fff0da"/>
      <stop offset="0.52" stop-color="#fff7e8"/>
      <stop offset="1" stop-color="#eadfff"/>
    </linearGradient>
    <filter id="communityShadow" x="-20%" y="-20%" width="140%" height="160%">
      <feDropShadow dx="0" dy="14" stdDeviation="12" flood-color="#bd8f75" flood-opacity="0.23"/>
    </filter>
  </defs>
  <rect width="360" height="190" rx="18" fill="url(#communityWall)"/>
  <path d="M191 0v190" stroke="#e1b38f" stroke-width="1.4" opacity="0.7"/>
  <g filter="url(#communityShadow)">
    <rect x="220" y="26" width="76" height="90" rx="35" fill="#d9b8da"/>
    <rect x="228" y="36" width="60" height="70" rx="28" fill="#fff9f1"/>
    <path d="M228 69h60M258 36v70" stroke="#c8a3c8" stroke-width="4"/>
    <rect x="180" y="126" width="170" height="46" rx="8" fill="#fff6ed"/>
    <rect x="224" y="96" width="88" height="54" rx="9" fill="#aaa7cb"/>
    <rect x="233" y="105" width="70" height="36" rx="5" fill="#ebe8ff"/>
    <path d="M211 155h116" stroke="#8a7995" stroke-width="6" stroke-linecap="round"/>
  </g>
  <g filter="url(#communityShadow)">
    <circle cx="154" cy="86" r="25" fill="#f05275"/>
    <circle cx="197" cy="78" r="22" fill="#7a70e8"/>
    <circle cx="238" cy="88" r="24" fill="#75c7c8"/>
    <path d="M111 143c5-23 24-37 45-37s40 14 45 37" fill="#ffe7ef"/>
    <path d="M160 143c4-21 20-34 38-34s34 13 38 34" fill="#e9e7ff"/>
    <path d="M202 143c5-22 22-35 40-35s35 13 40 35" fill="#e0f6f4"/>
    <circle cx="146" cy="80" r="6" fill="#fff" opacity="0.88"/>
    <circle cx="190" cy="72" r="5" fill="#fff" opacity="0.88"/>
    <circle cx="231" cy="82" r="6" fill="#fff" opacity="0.88"/>
  </g>
  <g>
    <path d="M316 42l7 15 16 2-12 11 3 16-14-8-14 8 3-16-12-11 16-2z" fill="#ffcf68"/>
  </g>
</svg>
